<?xml version="1.0" encoding="utf-8"?>
<!-- Generator: Adobe Illustrator 19.2.0, SVG Export Plug-In . SVG Version: 6.00 Build 0)  -->
<!DOCTYPE svg PUBLIC "-//W3C//DTD SVG 1.1//EN" "http://www.w3.org/Graphics/SVG/1.1/DTD/svg11.dtd">
<svg version="1.1" xmlns="http://www.w3.org/2000/svg" xmlns:xlink="http://www.w3.org/1999/xlink" x="0px" y="0px" width="355.5px"
	 height="530.1px" viewBox="0 0 355.5 530.1" enable-background="new 0 0 355.5 530.1" xml:space="preserve">
<g id="Capa_2">
</g>
<g id="Capa_1">
	<g>
		<path fill-rule="evenodd" clip-rule="evenodd" fill="#E84473" d="M133.4,364c0.6,0.8,1,1.8,1.7,2.6c2.5,0.7-5.3,8.7-5.8,9.1
			c-18.4,15.7-29.7,18.9-41,17.1c17.5-10.9,27.4-27.6,39.5-38.4L133.4,364z"/>
		<path fill-rule="evenodd" clip-rule="evenodd" fill="#DE3C6C" d="M162,320.3c-10.5,4.1-21.5,13.1-31.2,22
			c-9.8,8.9-15.7,22.9-33.4,30.9c28.5-6.4,22.3-15,33.3-20.6c12.4-6.4,27.1-12.5,37.5-14.2C166.3,335,162.6,320,162,320.3z"/>
		<g>
			<path fill-rule="evenodd" clip-rule="evenodd" fill="#DE3C6C" d="M127.5,361.7c0.8,0.5,1.7,1.3,2.4,1.8
				c2.7-0.3-1.6,10.1-1.9,10.7c-11.2,21.5-26.3,29.4-30.7,28.8c8.6-5.9,15-22.3,22-41.2L127.5,361.7z"/>
			<path fill-rule="evenodd" clip-rule="evenodd" fill="#D83B6A" d="M312,406.9c-1.1,24.5-21.3,54.9-43.1,63.6
				c5-3.3,7.9-8.2,10.2-13.6c-7.2,6.8-14.9,13-22.5,17.5c4.4-4.9,6.3-8.2,9-14.5c-3.8,5.6-9.2,9.9-15.6,13.2
				c-16.6,12.3-37.7,22.6-58.6,23.7c5.1-1.7,11.5-6.7,18.1-12.8c-22.5,8.4-47.6,14.5-67.4,15.3c12-3.7,21-12.3,24.8-18.6
				c-23.2,9-32.5,14.5-61.1,11.7c3.2-1.4,7.1-3.3,11.4-5.9c-11.3,2.3-21.5,0.2-25.1-2c5-1.2,8.2-3.1,14-7.7
				c-8.1,0.6-18.1-0.7-23.1-1.7c12-7.1,22.9-13.7,27.4-22.5c-4,3.5-24.8,9.3-32.5,7.8c18.6-12.7,29.8-33.5,33.1-45.1
				c-3.4,3.9-16.4,7.5-27.9,6c16.4-7.7,27.5-25.6,29.4-37.3c0.8-4.6,6.9-9.3,9.1-12.5c0.3-0.3-0.6-2,0.2-2.4
				c1.7-0.9,7.2-13.5,7.6-14.8c0.6,4,0.9,8.1,0.6,12.6c32.8-50.8,117.5-90.4,161.9-27.6C308.7,362.4,314.2,391.8,312,406.9z"/>
		</g>
	</g>
	<polygon fill="#DADDCB" points="252.4,514.1 259.4,486.2 40.1,0 44.1,0 262.8,485.1 292.9,493.4 291.9,496.8 262.4,488.6 
		255.7,514.9 	"/>
	<g>
		<path fill-rule="evenodd" clip-rule="evenodd" fill="#CC3764" d="M277.4,429.7c0.9,0.4,1.7,1.2,2.6,1.7c2.5-0.2-0.3,9.2-0.4,9.7
			c-6.2,20.2-25.6,25.1-31.9,24c7.6-5.4,17.6-18.1,22-35.4L277.4,429.7z"/>
		<path fill-rule="evenodd" clip-rule="evenodd" fill="#CC3764" d="M165.8,451.3c0.8,0.4,1.5,1.2,2.2,1.7c2.6-0.2-2.2,9.2-2.5,9.7
			c-10.4,20.2-28.7,24.3-35.6,23.9c7.8-4.7,20.1-18.1,28.1-35.4L165.8,451.3z"/>
		<path fill-rule="evenodd" clip-rule="evenodd" fill="#CC3764" d="M262.7,435.7c0.7,0.4,1.4,1.2,2,1.7c2.2-0.3-1.3,9.2-1.5,9.7
			c-7.6,20.2-26.8,22.8-32.5,22.6c7.4-5.2,19.7-16.8,25.5-34.1L262.7,435.7z"/>
		<path fill-rule="evenodd" clip-rule="evenodd" fill="#CC3764" d="M227.5,431.9c0.8,0.3,1.7,0.9,2.4,1.2
			c2.5-0.8,28.4,14.8,28.2,15.3c-7.3,21.9-61.2,28.4-67.3,28.4c7.8-7-21.7-33.4-16.3-52.1L227.5,431.9z"/>
		<path fill-rule="evenodd" clip-rule="evenodd" fill="#CC3764" d="M294.6,412.2c0.9,0.4,1.8,0.9,2.7,1.3c2.6-0.8,0.3,10.2,0.1,10.8
			c-7.1,23.2-26.9,37.5-31.3,37.7c7.5-7.4,17.1-28.4,20.5-48.3L294.6,412.2z"/>
		<path fill-rule="evenodd" clip-rule="evenodd" fill="#CC3764" d="M307.8,394.8c0.9,0.3,1.9,0.9,2.7,1.2c2.4-0.7,1,9.6,0.9,10.2
			c-3.2,22-13.5,37.4-28,48.1c9.4-13.8,7.5-29.7,9.4-48.2L307.8,394.8z"/>
		<path fill-rule="evenodd" clip-rule="evenodd" fill="#CC3764" d="M138.2,439.9c0.6,0.4,1.2,1.2,1.8,1.7c2.4,0,2.1,10.7,1.7,11.1
			c-11.8,16.6-34.3,19.2-41.8,18.9c12.7-4.2,22.5-19.2,23-37.9L138.2,439.9z"/>
		<path fill-rule="evenodd" clip-rule="evenodd" fill="#CC3764" d="M152.8,450.6c0.6,0.5,1.2,1.3,1.8,1.8c2.4,0.1,1.8,10.7,1.5,11.1
			c-12.2,16.3-45.6,19.4-53.1,19.1c12.9-3.9,33.8-19.8,34.6-38.5L152.8,450.6z"/>
		<path fill-rule="evenodd" clip-rule="evenodd" fill="#DE3C6C" d="M124.1,425.3c-4,9.4-9.5,18.3-20.5,26.6
			c6.7-9.6,9.4-23,12.2-35.4C117,419.3,121,425.9,124.1,425.3z"/>
	</g>
	<path fill-rule="evenodd" clip-rule="evenodd" fill="#F0C98B" d="M239.8,446c1,5,13.2,13.8,14.3,18.8c1.2,5.8-25-5.7-29.4-2.2
		c-2.6,1.9-5.1,6.3-0.2,9.4c4.8,3.2,35.7,2.2,39.6-2.2c1.9-2.2-21.7-27.4-23-27.2C238.2,443.2,242,444.7,239.8,446z"/>
	<path fill-rule="evenodd" clip-rule="evenodd" fill="#FAD9A5" d="M272.1,488.7c9.6-0.9,18.4-4.8,21.3-5.8c4-1.5,10.5,1.6,14,2.4
		c6.8,1.4,14.3,3.1,22.2,2.7c7.6-0.3,10.1-1.3,12.2-2.2c2.6-0.9,6.5-1.9,9.4-2.2c2.7-0.3,5.8,0.4,3.5,2.4c-2.3,2.2-8.9,3.2-9.9,6.5
		c-1.1,3.5-3.2,3.5-5.5,2.3c-4.4-2.5-7.2-2.1-16.3,0.6c-5.4,1.7-15,0.4-17.9-1.6c-3-2-5.5-1.1-9.4,0.1c-5.1,1.5-8.3,5.7-12,5.9
		L272.1,488.7z"/>
	<path fill-rule="evenodd" clip-rule="evenodd" fill="#FFE1B0" d="M284.3,498.5c12.7-8.2,7.1,2.4,17.2,9.5
		c3.7,2.6,13.2,4.6,14.5,7.3c1,2.1,1.1,5.8,6.2,4.8c3-0.5,6.9,1.3,7.9,1.2c4.4-0.3,2.7-2.9,4.2-4.2c0.1-0.1,0.6-0.9,0.7-1.1
		c0.1-1.7-1.1-1.6-1.8-1.7c-3-0.1-5.5-2.2-9.6-2.2c-6.8,0-15.5-13.2-17.5-15.1c-9.4-8.8-9-19.7-25.4-8.6l-6,3.2l-2.4,14L284.3,498.5
		z"/>
	<g>
		<path fill-rule="evenodd" clip-rule="evenodd" fill="#FF2EA1" d="M277.8,481.8c1-0.2,1.9,0.4,2.1,1.4c0.1,0.9-0.5,1.9-1.5,2.1
			c0.5,0.2,0.9,0.7,1,1.3c0.2,1-0.5,1.9-1.4,2.1c0.5,0.3,0.9,0.7,0.9,1.3c0.2,1-0.5,1.9-1.4,2.2c-0.1,0-0.1,0-0.1,0
			c0.4,0.2,0.7,0.6,0.9,1.2c0.1,1-0.5,1.9-1.5,2.1c-0.1,0-0.2,0-0.4,0c0.4,0.3,0.6,0.7,0.7,1.2c0.1,1-0.5,1.9-1.5,2.2
			c-0.1,0-0.2,0-0.3,0c0.4,0.3,0.6,0.6,0.7,1.2c0.1,0.9-0.5,1.9-1.5,2.1c-0.1,0-0.2,0-0.4,0c0.4,0.3,0.6,0.7,0.7,1.2
			c0.1,1-0.5,1.9-1.5,2.1c-0.9,0.2-1.9-0.4-2.1-1.4c-0.1-0.9,0.5-1.9,1.5-2.1c0.1,0,0.2,0,0.4,0c-0.4-0.3-0.6-0.7-0.7-1.2
			c-0.2-1,0.5-1.9,1.5-2.1c0.1-0.1,0.2-0.1,0.3-0.1c-0.4-0.2-0.6-0.6-0.7-1.2c-0.1-0.9,0.5-1.9,1.5-2.1c0.1,0,0.2,0,0.4,0
			c-0.4-0.3-0.6-0.6-0.7-1.2c-0.2-1,0.5-1.9,1.5-2.1c0,0,0,0,0.1,0c-0.5-0.3-0.8-0.7-0.9-1.3c-0.1-0.9,0.6-1.9,1.5-2.1
			c-0.5-0.2-0.9-0.7-1-1.3c-0.1-0.9,0.5-1.9,1.5-2.1c-0.5-0.2-0.9-0.7-1-1.3C276.2,482.8,276.8,481.9,277.8,481.8z"/>
		<path fill-rule="evenodd" clip-rule="evenodd" fill="#ED2B96" d="M279,490c0.1,0.9-0.6,1.9-1.5,2.1c-0.1,0-0.1,0-0.1,0
			c0.4,0.2,0.7,0.6,0.9,1.2c0.1,1-0.5,1.9-1.5,2.1c-0.1,0-0.2,0-0.4,0c0.4,0.3,0.6,0.7,0.7,1.2c0.1,1-0.5,1.9-1.5,2.2
			c-0.1,0-0.2,0-0.3,0c0.4,0.3,0.6,0.6,0.7,1.2c0.1,0.9-0.5,1.9-1.5,2.1c-0.1,0-0.2,0-0.4,0c0.4,0.3,0.6,0.7,0.7,1.2
			c0.1,1-0.5,1.9-1.5,2.1c-0.9,0.2-1.9-0.4-2.1-1.4c-0.1-0.9,0.5-1.9,1.5-2.1c0.1,0,0.2,0,0.4,0c-0.4-0.3-0.6-0.7-0.7-1.2
			c-0.2-1,0.5-1.9,1.5-2.1c0.1-0.1,0.2-0.1,0.3-0.1c-0.4-0.2-0.6-0.6-0.7-1.2c-0.1-0.9,0.5-1.9,1.5-2.1c0.1,0,0.2,0,0.4,0
			c-0.4-0.3-0.6-0.6-0.7-1.2c-0.1-0.1-0.1-0.1-0.1-0.2c0.6-0.4,1.2-0.9,1.8-1.4C277.1,492,278.1,491,279,490z"/>
	</g>
	<path fill-rule="evenodd" clip-rule="evenodd" fill="#B3AA79" d="M250.1,524.4c1.6,0,2.9,1.3,2.9,2.9c0,1.6-1.3,2.8-2.9,2.8
		c-1.7,0-3-1.2-3-2.8C247.2,525.7,248.5,524.4,250.1,524.4z"/>
	<path fill-rule="evenodd" clip-rule="evenodd" fill="#B3AA79" d="M290.3,504.9c1.6,0,3,1.3,3,2.9c0,1.6-1.4,2.9-3,2.9
		c-1.7,0-3-1.3-3-2.9C287.4,506.2,288.6,504.9,290.3,504.9z"/>
	<path fill-rule="evenodd" clip-rule="evenodd" fill="#8CCBFF" d="M261.6,512.9c-5.6,0.5-12.2,5.3-17.1,4.1
		c-20.6-5-32.6-62.9-21.7-77.9l8.9-3.8c-0.6,4.5-2.7,16.2-0.8,20.2c12.6,26.4,36.5,29.2,47,26.3
		C277.8,496.6,268.7,512.2,261.6,512.9z"/>
	<g>
		<g>
			<path fill-rule="evenodd" clip-rule="evenodd" fill="#FFFFFF" d="M251.4,492.1c0.9-2.2-0.6-2.9-1.2-1.6c-0.3,0.6,0.1,1.2,0.5,1.8
				c-1.2-1.8-3.3-1.2-2.1,0.1c0.2,0.2,0.9,0.5,1.6,0.6c-0.5,0.1-2,0.7-1.9,1.4c0.1,1,1.5,0.3,2.3-0.8c-0.2,1,0.1,3.1,1.4,2.2
				c0.6-0.4,0.1-1.5-0.4-2.4c1.3,1.9,2.2,1.8,2.3,1c0.1-0.6-1-1.6-2-1.7c0.6-0.1,1.4-0.4,1.8-0.9c0.4-0.5-0.3-1.4-0.9-1.2
				C252.3,490.8,251.7,491.6,251.4,492.1z"/>
			<path fill-rule="evenodd" clip-rule="evenodd" fill="#FF2EA1" d="M251.4,492.5c-0.2-0.1-0.6-0.1-0.7,0.1
				c-0.1,0.2-0.1,0.6,0.1,0.7c0.2,0.2,0.6,0.1,0.7-0.1C251.7,493,251.7,492.7,251.4,492.5z"/>
		</g>
		<g>
			<path fill-rule="evenodd" clip-rule="evenodd" fill="#FFFFFF" d="M269.2,487.2c-1.9,1.4-3,0.1-1.9-0.8c0.6-0.4,1.3-0.1,1.9,0.1
				c-2-0.7-2-3-0.4-2c0.3,0.1,0.7,0.8,1,1.4c-0.1-0.6,0.2-2.2,0.9-2.2c1-0.1,0.7,1.4-0.1,2.4c0.9-0.4,3-0.6,2.4,0.9
				c-0.3,0.6-1.4,0.4-2.4,0.1c2.2,0.8,2.2,1.8,1.5,2c-0.6,0.2-1.8-0.6-2.2-1.5c0.1,0.6-0.1,1.4-0.4,1.9c-0.4,0.6-1.5,0.1-1.4-0.6
				C268.1,488.4,268.8,487.6,269.2,487.2z"/>
			<path fill-rule="evenodd" clip-rule="evenodd" fill="#FF2EA1" d="M269.6,487.1c-0.2-0.1-0.3-0.5-0.1-0.7c0.1-0.2,0.5-0.2,0.7-0.1
				c0.2,0.2,0.3,0.5,0.1,0.7C270.1,487.3,269.9,487.3,269.6,487.1z"/>
		</g>
		<path fill-rule="evenodd" clip-rule="evenodd" fill="#FFFFFF" d="M274.2,499c-0.9,0.1-1.2-0.8-0.4-1.4c0.3-0.2,0.7-0.2,1.1-0.1
			C274.6,497.9,274.4,498.4,274.2,499L274.2,499z M274.9,497.2c-1.3-0.9-1.1-2.4,0.4-1.7c0,0,0.1,0.1,0.1,0.1
			C275.3,496.2,275,496.7,274.9,497.2z"/>
		<g>
			<path fill-rule="evenodd" clip-rule="evenodd" fill="#FFFFFF" d="M222.2,467.6c-0.5-2.9-2.6-2.5-2.3-0.9c0.2,0.9,1,1.2,1.8,1.6
				c-1-0.4-1.9-0.4-2.4-0.1c0,0.5,0.1,1,0.1,1.6c0.1,0,0.1,0,0.1,0c0.4,0.1,1.3-0.1,2-0.4c-0.5,0.4-1.6,2.1-1,2.7
				c0.8,0.9,1.8-0.7,1.9-2.4c0.5,1.2,2.2,3.1,3,1.2c0.3-0.8-0.9-1.5-2.1-2c2.7,1,3.5,0.2,3.1-0.6c-0.4-0.6-2.2-0.9-3.2-0.4
				c0.6-0.5,1.1-1.4,1.2-2.2c0.1-0.8-1.3-1.2-1.8-0.6C222.2,465.6,222.2,466.8,222.2,467.6z"/>
			<path fill-rule="evenodd" clip-rule="evenodd" fill="#FF008C" d="M222.6,467.9c-0.4,0-0.7,0.3-0.7,0.6c-0.1,0.4,0.2,0.6,0.6,0.7
				c0.4,0,0.7-0.3,0.7-0.6C223.1,468.2,222.9,467.9,222.6,467.9z"/>
		</g>
		<g>
			<path fill-rule="evenodd" clip-rule="evenodd" fill="#FFFFFF" d="M258.2,497.7c-0.6-2.9-2.7-2.5-2.3-0.9c0.1,0.9,1,1.2,1.7,1.6
				c-2.4-1.1-4.2,0.9-2,1.5c0.4,0.1,1.3-0.1,2-0.5c-0.5,0.5-1.6,2.1-1,2.7c0.8,1,1.8-0.7,1.8-2.4c0.5,1.2,2.2,3.1,3,1.2
				c0.4-0.7-0.9-1.5-2-2c2.6,1.1,3.5,0.3,3-0.6c-0.3-0.6-2.1-0.9-3.2-0.4c0.6-0.5,1.1-1.4,1.2-2.1c0.1-0.8-1.2-1.3-1.7-0.6
				C258.2,495.7,258.1,496.9,258.2,497.7z"/>
			<path fill-rule="evenodd" clip-rule="evenodd" fill="#FF2EA1" d="M258.5,498c-0.4,0-0.6,0.2-0.7,0.6c0,0.3,0.3,0.6,0.6,0.6
				c0.4,0,0.6-0.2,0.7-0.6C259.1,498.4,258.8,498,258.5,498z"/>
		</g>
		<g>
			<path fill-rule="evenodd" clip-rule="evenodd" fill="#FFFFFF" d="M269.1,504.7c-2.9,0.2-3.1-1.9-1.4-2c0.9-0.1,1.4,0.7,1.9,1.3
				c-1.7-2.1-0.2-4.3,0.9-2.3c0.1,0.4,0.1,1.3,0,2c0.3-0.5,1.3-1.6,2.1-1.7c-0.5,0.9-0.9,1.7-1.4,2.4c-0.1,0-0.1,0-0.1,0
				c0,0.1,0.1,0.1,0.1,0.1c-0.5,0.8-1,1.6-1.6,2.3c-0.1-0.4-0.1-0.8,0-1.2c-0.4,0.6-1.1,1.4-1.8,1.7c-0.7,0.3-1.5-0.9-1.1-1.5
				C267.2,505.2,268.5,504.9,269.1,504.7z"/>
			<path fill-rule="evenodd" clip-rule="evenodd" fill="#FF008C" d="M269.6,504.9c-0.1-0.4,0-0.7,0.4-0.8c0.3-0.1,0.6,0.1,0.8,0.4
				c0.1,0.4-0.1,0.7-0.4,0.9C270.1,505.5,269.7,505.3,269.6,504.9z"/>
		</g>
		<path fill-rule="evenodd" clip-rule="evenodd" fill="#FFFFFF" d="M223.6,488.4c0.9,0.1,1.5-0.1,1.4-1.3c-0.1-0.7-1-0.9-2.1-0.9
			C223.1,486.9,223.4,487.7,223.6,488.4L223.6,488.4z M222.9,486c2.2-0.4,2.5-1.5,1.7-2c-0.4-0.3-1.4-0.1-2.2,0.4
			C222.6,484.9,222.8,485.4,222.9,486z"/>
		<g>
			<path fill-rule="evenodd" clip-rule="evenodd" fill="#FFFFFF" d="M244.4,499.4c-2-2.5-3.9-1.1-2.7,0.4c0.6,0.8,1.7,0.6,2.6,0.6
				c-3,0.2-3.7,3.1-1.2,2.5c0.4-0.1,1.2-0.9,1.7-1.5c-0.2,0.7-0.4,2.9,0.4,3.2c1.3,0.5,1.4-1.7,0.6-3.3c1.2,1,3.7,1.9,3.5-0.3
				c-0.1-0.9-1.7-1.1-3.1-0.9c3.2-0.4,3.5-1.6,2.7-2.2c-0.6-0.4-2.5,0.2-3.3,1.3c0.3-0.9,0.3-1.9,0-2.7c-0.3-0.9-1.9-0.6-2,0.3
				C243.4,497.4,244,498.7,244.4,499.4z"/>
			<path fill-rule="evenodd" clip-rule="evenodd" fill="#FF008C" d="M244.9,499.5c-0.4,0.2-0.6,0.6-0.4,0.9c0.1,0.4,0.6,0.5,0.9,0.4
				c0.4-0.2,0.6-0.6,0.4-0.9C245.7,499.5,245.3,499.4,244.9,499.5z"/>
		</g>
		<g>
			<path fill-rule="evenodd" clip-rule="evenodd" fill="#FFFFFF" d="M226.8,460.2c-3-1.3-2-3.5-0.3-2.7c0.9,0.4,1,1.4,1.2,2.3
				c-0.5-2.9,2.1-4.3,2.2-1.8c0,0.4-0.5,1.4-1.1,2c0.6-0.4,2.7-1.1,3.2-0.4c0.8,1.2-1.3,1.8-3.1,1.4c1.2,0.9,2.8,3.2,0.6,3.5
				c-0.9,0.1-1.4-1.4-1.7-2.7c0.4,3.1-0.6,3.8-1.4,3.1c-0.6-0.5-0.4-2.5,0.4-3.5c-0.7,0.5-1.7,0.8-2.6,0.7c-0.9-0.1-1.1-1.7-0.3-2.1
				C224.6,459.6,226.1,460,226.8,460.2z"/>
			<path fill-rule="evenodd" clip-rule="evenodd" fill="#FF008C" d="M227.1,460.7c0.1-0.4,0.4-0.7,0.8-0.6c0.4,0.1,0.6,0.4,0.6,0.9
				c-0.1,0.4-0.4,0.6-0.8,0.6C227.3,461.4,227,461,227.1,460.7z"/>
		</g>
		<g>
			<path fill-rule="evenodd" clip-rule="evenodd" fill="#FFFFFF" d="M230.3,488c-3-1.3-2-3.5-0.3-2.7c0.9,0.4,1,1.4,1.2,2.3
				c-0.4-3,2.2-4.3,2.2-1.8c0,0.4-0.5,1.4-1,2c0.6-0.4,2.7-1.1,3.2-0.4c0.8,1.2-1.3,1.8-3.1,1.4c1.2,0.9,2.8,3.2,0.6,3.5
				c-0.9,0.1-1.4-1.4-1.7-2.7c0.4,3.1-0.6,3.8-1.4,3.1c-0.6-0.5-0.4-2.5,0.4-3.5c-0.7,0.4-1.8,0.8-2.7,0.6c-0.9-0.1-1-1.7-0.2-2
				C228.1,487.5,229.5,487.8,230.3,488z"/>
			<path fill-rule="evenodd" clip-rule="evenodd" fill="#FF008C" d="M230.5,488.4c0.1-0.4,0.4-0.6,0.8-0.6c0.4,0.1,0.6,0.4,0.6,0.8
				c-0.1,0.4-0.4,0.7-0.8,0.6C230.7,489.2,230.5,488.9,230.5,488.4z"/>
		</g>
		<g>
			<path fill-rule="evenodd" clip-rule="evenodd" fill="#FFFFFF" d="M234.5,501c-3,2.3-1.3,4.5,0.4,3.1c0.9-0.7,0.8-1.9,0.7-3
				c0.3,3.5,3.6,4.2,3,1.4c-0.1-0.5-1-1.4-1.8-2c0.9,0.3,3.4,0.5,3.7-0.5c0.6-1.5-1.9-1.6-3.8-0.6c1.1-1.3,2.2-4.4-0.4-4.1
				c-1.1,0.1-1.2,1.9-1.1,3.6c-0.4-3.7-1.9-4.2-2.5-3.2c-0.5,0.8,0.3,3,1.4,3.9c-0.9-0.3-2.2-0.4-3.1,0c-1,0.4-0.7,2.2,0.3,2.4
				C232.2,502.2,233.6,501.5,234.5,501z"/>
			<path fill-rule="evenodd" clip-rule="evenodd" fill="#FF008C" d="M234.6,500.5c0.2,0.4,0.6,0.6,1.1,0.4c0.4-0.1,0.6-0.6,0.4-1.1
				c-0.1-0.4-0.6-0.6-1.1-0.4C234.6,499.5,234.4,500,234.6,500.5z"/>
		</g>
		<path fill-rule="evenodd" clip-rule="evenodd" fill="#FFFFFF" d="M231.4,456.8c-0.4-0.1-0.8-0.5-0.9-1.3c0-0.2,0-0.4,0.1-0.5
			c0.1,0.1,0.1,0.4,0.2,0.5C231,455.9,231.2,456.3,231.4,456.8L231.4,456.8z M230.2,453.2c-0.6-0.4-0.6-0.9-0.1-1.4c0,0,0,0,0.1,0
			C230.1,452.4,230.2,452.8,230.2,453.2z"/>
		<path fill-rule="evenodd" clip-rule="evenodd" fill="#FFFFFF" d="M220.3,475.2c0.5,0.2,0.6,1.1,0.3,1.5
			C220.5,476.2,220.5,475.7,220.3,475.2z"/>
		<g>
			<path fill-rule="evenodd" clip-rule="evenodd" fill="#FFFFFF" d="M243.2,490.2c2.7,1.2,1.8,3.1,0.3,2.4c-0.8-0.4-0.9-1.2-1.1-2
				c0.5,2.6-1.9,3.9-1.9,1.7c0-0.4,0.4-1.2,0.9-1.9c-0.6,0.4-2.4,1-2.9,0.4c-0.7-1,1.1-1.6,2.7-1.2c-1-0.7-2.4-2.8-0.5-3.1
				c0.8-0.1,1.3,1.2,1.5,2.4c-0.4-2.8,0.5-3.5,1.2-2.8c0.6,0.4,0.4,2.2-0.4,3.2c0.6-0.4,1.6-0.7,2.3-0.6c0.9,0.1,1,1.4,0.3,1.8
				C245.2,490.7,243.9,490.5,243.2,490.2z"/>
			<path fill-rule="evenodd" clip-rule="evenodd" fill="#FF2EA1" d="M243,489.9c-0.1,0.4-0.4,0.6-0.7,0.6c-0.4-0.1-0.6-0.4-0.5-0.8
				c0.1-0.4,0.4-0.6,0.7-0.5C242.8,489.2,243.1,489.5,243,489.9z"/>
		</g>
		<g>
			<path fill-rule="evenodd" clip-rule="evenodd" fill="#FFFFFF" d="M242.6,472.8c-0.2,2.9,1.9,3.1,1.9,1.4c0.1-0.4-0.1-0.6-0.2-0.9
				c-1.4-1.1-2.7-2.2-4-3.6c0.3,0.6,0.9,1.2,1.4,1.7c-2.2-1.7-3.2-1.2-3-0.3c0.1,0.7,1.8,1.4,3,1.2c-0.7,0.4-1.4,1-1.7,1.7
				c-0.4,0.7,0.8,1.5,1.4,1.1C242.1,474.6,242.5,473.4,242.6,472.8z"/>
			<path fill-rule="evenodd" clip-rule="evenodd" fill="#FF008C" d="M242.4,472.3c0.3,0.1,0.6,0.1,0.7-0.1c-0.4-0.3-0.6-0.6-0.9-0.9
				c-0.1,0.1-0.1,0.1-0.2,0.2C241.9,471.9,242.1,472.2,242.4,472.3z"/>
		</g>
		<g>
			<path fill-rule="evenodd" clip-rule="evenodd" fill="#FFFFFF" d="M277.6,485.6L277.6,485.6c-1.2-0.5-1.3,1.4-0.6,2.9
				c-1-0.8-3.4-1.7-3.2,0.3c0.1,0.8,1.5,0.9,2.7,0.9c-2.7,0.3-3.2,1.4-2.4,1.9c0.5,0.4,1.7,0,2.5-0.6
				C277.1,489.2,277.4,487.4,277.6,485.6z"/>
			<path fill-rule="evenodd" clip-rule="evenodd" fill="#FF008C" d="M277.1,489.1c-0.2,0.1-0.3,0.4-0.1,0.7l0,0
				C277.1,489.6,277.1,489.3,277.1,489.1z"/>
		</g>
		<path fill-rule="evenodd" clip-rule="evenodd" fill="#FFFFFF" d="M227.7,499c0.3-0.2,0.4-0.6,0.2-1.2c-0.1-0.7-0.7-1-1.3-1.3
			C227,497.4,227.4,498.2,227.7,499L227.7,499z M226.6,496.5c-0.1-0.4-0.3-0.8-0.5-1.2c0.7-0.4,1.7-0.6,2-0.6
			C230.3,495.1,228.9,497,226.6,496.5L226.6,496.5z M226.1,495.3c0.5-0.6,1.4-2.3,0.9-2.9c-0.6-0.6-1.2,0-1.6,1
			C225.6,494.1,225.9,494.6,226.1,495.3z"/>
		<g>
			<path fill-rule="evenodd" clip-rule="evenodd" fill="#FFFFFF" d="M225.6,450.6c3-0.1,3.1,2.2,1.4,2.2c-1,0-1.4-0.8-1.9-1.4
				c1.6,2.2-0.1,4.5-1.1,2.4c-0.2-0.4-0.1-1.4,0.1-2.2c-0.4,0.6-1.9,2-2.6,1.6c-1.2-0.6,0.4-2,2-2.4c-1.4-0.2-3.6-1.6-1.9-2.7
				c0.7-0.4,1.7,0.6,2.5,1.7c-1.7-2.4-1-3.5-0.1-3.2c0.7,0.2,1.4,2,1.1,3.2c0.4-0.6,1.2-1.4,1.9-1.6c0.8-0.3,1.5,0.9,1,1.6
				C227.7,450.1,226.4,450.4,225.6,450.6z"/>
			<path fill-rule="evenodd" clip-rule="evenodd" fill="#FF008C" d="M225.2,450.3c0.1,0.4-0.1,0.8-0.4,0.9c-0.4,0.1-0.7-0.1-0.9-0.5
				c-0.1-0.4,0.1-0.7,0.4-0.8C224.8,449.7,225.1,449.9,225.2,450.3z"/>
		</g>
		<path fill-rule="evenodd" clip-rule="evenodd" fill="#FFFFFF" d="M277.8,483.8c-0.1,0-0.2-0.1-0.4-0.2c-0.3-0.2-0.6-0.8-0.9-1.5
			c0.4-0.1,0.9-0.2,1.3-0.3C277.8,482.4,277.8,483.1,277.8,483.8L277.8,483.8z M276,482.2c-0.3,1-0.9,2.2-1.7,2.2
			c-0.9,0-1-0.9-0.6-1.9C274.6,482.4,275.3,482.3,276,482.2z"/>
		<g>
			<path fill-rule="evenodd" clip-rule="evenodd" fill="#FFFFFF" d="M241.8,511.5c3.5-1.4,2.4-4,0.4-3.1c-1.1,0.4-1.2,1.6-1.4,2.7
				c0.6-3.4-2.4-5.1-2.4-2.2c0,0.5,0.5,1.6,1.2,2.4c-0.8-0.5-3.1-1.4-3.7-0.5c-0.1,0.2-0.2,0.4-0.2,0.5c0.3,0.4,0.6,0.7,1,1
				c0.7,0.3,1.7,0.4,2.7,0.1c-0.4,0.3-0.9,0.7-1.3,1.2c0.7,0.6,1.4,1,2,1.4c0.2-0.5,0.4-1.2,0.5-1.7c-0.1,0.8-0.1,1.4-0.1,1.9
				c0.7,0.4,1.4,0.8,2.1,1.1c0.3-0.9,0-2.6-0.7-3.5c0.8,0.6,2,0.9,3,0.9c1.1-0.1,1.3-1.9,0.4-2.4C244.4,511,242.7,511.3,241.8,511.5
				z"/>
			<path fill-rule="evenodd" clip-rule="evenodd" fill="#FF008C" d="M241.5,512c-0.1-0.4-0.4-0.8-0.9-0.7c-0.4,0.1-0.7,0.5-0.6,0.9
				c0,0.5,0.4,0.8,0.9,0.7C241.3,512.9,241.6,512.5,241.5,512z"/>
		</g>
		<g>
			<path fill-rule="evenodd" clip-rule="evenodd" fill="#FFFFFF" d="M233.4,470.2c-0.6,3.7-3.2,3.4-2.9,1.2c0.1-1.2,1.2-1.5,2.2-2
				c-3.1,1.4-5.5-1-2.7-1.9c0.5-0.1,1.7,0.1,2.6,0.6c-0.6-0.6-2.1-2.7-1.4-3.5c1-1.2,2.4,0.9,2.5,3c0.4-1.2,1.7-2.9,2.8-2.7
				c0.3,0.4,0.6,0.9,1,1.3c0,0.9-1.4,1.7-2.7,2.4c3.4-1.5,4.5-0.5,4,0.6c-0.4,0.9-2.7,1.3-4.1,0.6c0.8,0.6,1.4,1.7,1.6,2.7
				c0.2,1-1.5,1.7-2.2,0.9C233.5,472.8,233.4,471.2,233.4,470.2z"/>
			<path fill-rule="evenodd" clip-rule="evenodd" fill="#FF2EA1" d="M233.8,469.8c-0.5,0.1-0.9-0.3-0.9-0.7
				c-0.1-0.4,0.3-0.8,0.7-0.9c0.5-0.1,0.9,0.3,0.9,0.7C234.6,469.4,234.2,469.7,233.8,469.8z"/>
		</g>
		<g>
			<path fill-rule="evenodd" clip-rule="evenodd" fill="#FFFFFF" d="M267.3,496.4c-0.5,3.7-3.2,3.4-2.9,1.2c0.2-1.2,1.3-1.5,2.2-2
				c-3.1,1.4-5.5-1-2.7-1.9c0.6-0.1,1.7,0.1,2.7,0.6c-0.6-0.6-2.1-2.7-1.4-3.5c1-1.2,2.4,0.9,2.4,3c0.6-1.7,2.7-4.1,3.7-1.7
				c0.4,1-1.1,2-2.5,2.7c3.3-1.5,4.5-0.5,4,0.6c-0.4,0.9-2.7,1.3-4.1,0.6c0.7,0.6,1.4,1.7,1.6,2.7c0.1,1-1.5,1.7-2.2,0.9
				C267.5,499,267.4,497.3,267.3,496.4z"/>
			<path fill-rule="evenodd" clip-rule="evenodd" fill="#FF008C" d="M267.8,495.9c-0.4,0.1-0.9-0.3-0.9-0.7
				c-0.1-0.4,0.3-0.8,0.8-0.9c0.4-0.1,0.9,0.3,0.9,0.7C268.6,495.5,268.3,495.9,267.8,495.9z"/>
		</g>
		<g>
			<path fill-rule="evenodd" clip-rule="evenodd" fill="#FFFFFF" d="M219,460.1c-0.1,3.1,2.2,3.2,2.2,1.4c0-1-0.9-1.5-1.5-2
				c2.3,1.7,4.7,0,2.4-1.2c-0.4-0.1-1.4-0.1-2.2,0.1c0.6-0.4,2.2-1.9,1.7-2.7c-0.6-1.2-2.1,0.4-2.5,2.1c-0.1-0.4-0.3-0.9-0.5-1.4
				c0,1.6,0,3.2,0.1,4.8C218.9,460.8,219,460.4,219,460.1z"/>
			<path fill-rule="evenodd" clip-rule="evenodd" fill="#FF008C" d="M218.7,459.6c0.4,0.1,0.8-0.1,0.9-0.4c0.1-0.4-0.1-0.8-0.5-0.9
				c-0.1-0.1-0.3-0.1-0.4,0C218.7,458.8,218.7,459.2,218.7,459.6L218.7,459.6z"/>
		</g>
		<g>
			<path fill-rule="evenodd" clip-rule="evenodd" fill="#FFFFFF" d="M263.1,483c-0.1,3.1,2.2,3.2,2.2,1.4c0-1-0.8-1.5-1.5-2
				c1.4,1,2.8,0.8,3.2,0.2c-2.6-0.2-5.4-0.7-8.3-1.6c0,0.1,0,0.1,0,0.3c0.2,0.7,2.1,1.4,3.3,1.2c-0.7,0.4-1.4,1.2-1.7,2
				c-0.3,0.8,1,1.6,1.7,1.1C262.6,485.1,262.9,483.7,263.1,483z"/>
			<path fill-rule="evenodd" clip-rule="evenodd" fill="#FF2EA1" d="M262.8,482.5c0.4,0.1,0.8-0.1,0.9-0.4c-0.4-0.1-0.9-0.1-1.4-0.3
				C262.3,482.1,262.5,482.4,262.8,482.5z"/>
		</g>
		<g>
			<path fill-rule="evenodd" clip-rule="evenodd" fill="#FFFFFF" d="M248,480.6c2.8,2.2,1.3,4.2-0.4,3c-0.9-0.7-0.7-1.8-0.7-2.8
				c-0.2,3.3-3.4,4.1-2.7,1.4c0.1-0.5,0.9-1.4,1.7-1.9c-0.8,0.2-3.2,0.5-3.6-0.4c-0.6-1.4,1.8-1.6,3.7-0.7c-1.1-1.2-2.2-4.1,0.3-3.9
				c1,0.1,1.2,1.9,1.1,3.4c0.1-1.3,0.4-2.2,0.7-2.7c0.5,0.4,1.1,0.7,1.7,1c-0.2,0.9-0.7,1.9-1.4,2.4c0.9-0.4,2.1-0.4,3-0.1
				c0.9,0.3,0.7,2-0.3,2.2C250.2,481.7,248.8,481,248,480.6z"/>
			<path fill-rule="evenodd" clip-rule="evenodd" fill="#FF008C" d="M247.9,480c-0.2,0.4-0.6,0.6-1.1,0.5c-0.4-0.2-0.5-0.6-0.4-1.1
				c0.1-0.4,0.6-0.6,1-0.4C247.9,479.2,248,479.6,247.9,480z"/>
		</g>
		<g>
			<path fill-rule="evenodd" clip-rule="evenodd" fill="#FFFFFF" d="M258.4,490.4c-1.5,2.2-3.1,1.2-2.2-0.1c0.5-0.7,1.3-0.6,2-0.7
				c-2.4,0.1-3.2-2.3-1.2-1.9c0.4,0.1,1.1,0.6,1.5,1.2c-0.2-0.6-0.5-2.4,0.1-2.7c1-0.5,1.2,1.2,0.7,2.7c0.9-0.9,3-1.8,2.9,0
				c0,0.7-1.3,0.9-2.4,0.9c2.6,0.1,3,1.1,2.4,1.6c-0.5,0.4-2.2,0-2.9-0.8c0.3,0.6,0.4,1.5,0.2,2.2c-0.1,0.7-1.4,0.6-1.7-0.1
				C257.7,492.1,258.1,491,258.4,490.4z"/>
			<path fill-rule="evenodd" clip-rule="evenodd" fill="#FF2EA1" d="M258.8,490.2c-0.3-0.1-0.4-0.4-0.4-0.7c0.1-0.3,0.4-0.4,0.7-0.4
				c0.4,0.1,0.5,0.4,0.4,0.7C259.5,490.2,259.1,490.4,258.8,490.2z"/>
		</g>
		<g>
			<path fill-rule="evenodd" clip-rule="evenodd" fill="#FFFFFF" d="M255.7,483.9c2.4,0.5,2.8-1.3,1.4-1.5c-0.7-0.1-1.2,0.4-1.7,0.9
				c1.6-1.6,0.6-3.6-0.6-2c-0.1,0.2-0.3,1-0.2,1.7c-0.2-0.5-1.2-1.9-1.8-1.7c-1,0.4,0,1.7,1.2,2.2c-1.1,0-3.1,0.7-1.9,1.9
				c0.5,0.5,1.5-0.2,2.2-0.9c-1.7,1.7-1.3,2.7-0.5,2.5c0.6,0,1.4-1.4,1.3-2.3c0.2,0.6,0.7,1.2,1.3,1.6c0.6,0.3,1.4-0.6,1.1-1.2
				C257.2,484.6,256.2,484.1,255.7,483.9z"/>
			<path fill-rule="evenodd" clip-rule="evenodd" fill="#FF2EA1" d="M255.3,484.1c0.1-0.3,0-0.6-0.2-0.7c-0.3-0.1-0.6,0-0.7,0.2
				c-0.1,0.3-0.1,0.6,0.2,0.8C254.9,484.4,255.2,484.3,255.3,484.1z"/>
		</g>
		<g>
			<path fill-rule="evenodd" clip-rule="evenodd" fill="#FFFFFF" d="M237.2,480c1.1,2.2-0.5,3-1.1,1.7c-0.4-0.6,0.1-1.3,0.4-1.9
				c-1.1,1.9-3.3,1.5-2.1,0.1c0.2-0.3,0.9-0.6,1.6-0.7c-0.6-0.1-2.1-0.6-2-1.4c0.1-1,1.6-0.4,2.4,0.7c-0.2-1.1,0-3.2,1.4-2.3
				c0.6,0.4,0.2,1.5-0.4,2.4c1.3-2,2.2-1.9,2.4-1.1c0.1,0.6-1,1.7-1.9,1.9c0.6,0,1.4,0.4,1.8,0.8c0.5,0.5-0.1,1.5-0.8,1.4
				C238.2,481.3,237.6,480.5,237.2,480z"/>
			<path fill-rule="evenodd" clip-rule="evenodd" fill="#FF2EA1" d="M237.3,479.6c-0.2,0.2-0.6,0.2-0.8,0c-0.1-0.2-0.1-0.6,0.1-0.8
				c0.3-0.2,0.6-0.2,0.8,0C237.6,479,237.5,479.4,237.3,479.6z"/>
		</g>
		<path fill-rule="evenodd" clip-rule="evenodd" fill="#FFFFFF" d="M264,512.1c0.2-0.3,0.4-0.5,0.8-0.4
			C264.5,511.8,264.3,512,264,512.1z"/>
		<path fill-rule="evenodd" clip-rule="evenodd" fill="#FFFFFF" d="M231,505.1c0.1,0.1,0.3,0.1,0.5,0.2c0.3,0.2,0.4,0.6,0.3,1
			C231.5,505.9,231.2,505.5,231,505.1L231,505.1z M232.1,506.7c0.9-0.9,1.6-0.6,1.7,0c0.1,0.4-0.3,0.9-0.7,1.4
			C232.6,507.7,232.3,507.2,232.1,506.7z"/>
		<g>
			<path fill-rule="evenodd" clip-rule="evenodd" fill="#FFFFFF" d="M262.2,507.4c0.9,1.9-0.4,2.6-0.9,1.4c-0.3-0.6,0.1-1.1,0.4-1.6
				c-0.9,1.6-2.9,1.2-1.8,0c0.1-0.2,0.8-0.5,1.4-0.6c-0.5-0.1-1.8-0.6-1.8-1.2c0.1-0.9,1.4-0.4,2.1,0.6c-0.2-0.9,0-2.7,1.2-2
				c0.5,0.4,0.1,1.3-0.4,2.1c1.1-1.7,1.9-1.7,2-1c0.1,0.5-0.8,1.4-1.7,1.7c0.6,0,1.2,0.3,1.6,0.7c0.4,0.4-0.1,1.2-0.7,1.1
				C263,508.5,262.5,507.8,262.2,507.4z"/>
			<path fill-rule="evenodd" clip-rule="evenodd" fill="#FF008C" d="M262.2,507c-0.2,0.2-0.5,0.2-0.6,0c-0.1-0.1-0.1-0.4,0.1-0.6
				c0.2-0.1,0.5-0.1,0.6,0C262.4,506.6,262.4,506.9,262.2,507z"/>
		</g>
		<g>
			<path fill-rule="evenodd" clip-rule="evenodd" fill="#FFFFFF" d="M227.4,476c-0.6-3.7,2.2-4.2,2.4-2c0.1,1.2-0.7,1.9-1.5,2.7
				c2.5-2.4,5.5-0.7,3.1,0.9c-0.4,0.3-1.6,0.4-2.6,0.2c0.8,0.4,2.7,1.9,2.4,3c-0.6,1.5-2.5-0.1-3.2-2.1c-0.1,1.7-1.4,4.7-3.1,2.7
				c-0.6-0.8,0.5-2.2,1.7-3.4c-2.7,2.4-4.1,1.8-4,0.6c0.1-0.9,2.2-2,3.7-1.9c-0.9-0.4-1.9-1.2-2.4-2.1c-0.4-0.9,1-2.1,1.9-1.6
				C226.5,473.5,227.1,475.1,227.4,476z"/>
			<path fill-rule="evenodd" clip-rule="evenodd" fill="#FF2EA1" d="M227.2,476.5c0.4-0.1,0.9,0,1.1,0.4c0.2,0.4,0,0.9-0.4,1
				c-0.4,0.2-0.9,0.1-1.2-0.4C226.5,477.2,226.7,476.7,227.2,476.5z"/>
		</g>
		<g>
			<path fill-rule="evenodd" clip-rule="evenodd" fill="#FFFFFF" d="M252.1,507.2c-0.6-3.7,2.1-4.2,2.4-2c0.2,1.2-0.7,1.9-1.4,2.7
				c2.5-2.3,5.5-0.7,3.1,0.9c-0.4,0.3-1.7,0.4-2.7,0.3c0.8,0.4,2.8,1.9,2.4,2.9c-0.6,1.5-2.5-0.1-3.3-2.1c-0.1,1.7-1.4,4.7-3,2.7
				c-0.7-0.8,0.4-2.2,1.6-3.4c-2.7,2.4-4.1,1.9-4,0.6c0.1-0.9,2.2-2,3.7-1.9c-0.9-0.4-1.9-1.2-2.3-2.1c-0.5-0.9,0.9-2.1,1.8-1.5
				C251.1,504.9,251.8,506.4,252.1,507.2z"/>
			<path fill-rule="evenodd" clip-rule="evenodd" fill="#FF008C" d="M251.8,507.8c0.4-0.2,0.9-0.1,1.1,0.4c0.2,0.4,0,0.9-0.4,1.1
				c-0.4,0.1-0.9,0-1.1-0.4C251.1,508.5,251.4,508,251.8,507.8z"/>
		</g>
	</g>
	<path fill-rule="evenodd" clip-rule="evenodd" fill="#73B6ED" d="M221,443.1c1.5,8.7,3.6,24.5,5.3,32.3c4.8,23.6,32.7,31.4,50.1,17
		c-2.7,12.7-7.7,21.1-14.8,20.5c-5.6-0.5-12.2,5.3-17.1,4.1c-14.9-3.6-26.5-32.8-28.5-62.1C215.1,447.8,207.6,443.7,221,443.1z"/>
	<g>
		<path fill-rule="evenodd" clip-rule="evenodd" fill="#EDEDEE" d="M274.8,498.7c-1.4,0.6-2.1-0.5-1.1-1.2c0.4-0.3,0.9-0.2,1.4-0.1
			C275,497.9,274.9,498.3,274.8,498.7L274.8,498.7z M275.2,497.4c0.1-0.4,0.3-0.9,0.4-1.4c-0.1-0.1-0.3-0.3-0.4-0.4
			C273.7,494.8,273.6,496.6,275.2,497.4z"/>
		<g>
			<path fill-rule="evenodd" clip-rule="evenodd" fill="#EDEDEE" d="M222.2,467.6c-0.5-2.9-2.6-2.5-2.3-0.9c0.2,0.9,1,1.2,1.8,1.6
				c-2.4-1.1-4.2,0.9-2.1,1.4c0.4,0.1,1.3-0.1,2-0.4c-0.5,0.4-1.6,2.1-1,2.7c0.8,0.9,1.8-0.7,1.9-2.4c0.5,1.2,2.2,3.1,3,1.2
				c0,0,0,0,0-0.1c-0.1-0.2-0.1-0.4-0.1-0.6c-0.3-0.5-1.2-0.9-1.9-1.3c0.8,0.3,1.4,0.4,1.8,0.4c-0.1-0.5-0.1-1.1-0.3-1.7
				c-0.6-0.1-1.2,0-1.7,0.2c0.6-0.5,1.1-1.4,1.2-2.2c0.1-0.8-1.3-1.2-1.8-0.6C222.2,465.6,222.2,466.8,222.2,467.6z"/>
			<path fill-rule="evenodd" clip-rule="evenodd" fill="#FF008C" d="M222.6,467.9c-0.4,0-0.7,0.3-0.7,0.6c-0.1,0.4,0.2,0.6,0.6,0.7
				c0.4,0,0.7-0.3,0.7-0.6C223.1,468.2,222.9,467.9,222.6,467.9z"/>
		</g>
		<path fill-rule="evenodd" clip-rule="evenodd" fill="#EDEDEE" d="M255,499.6c0.1,0.1,0.4,0.2,0.6,0.3c0.3,0.1,0.9-0.1,1.4-0.3
			C256.3,499.7,255.7,499.7,255,499.6L255,499.6z M257.4,499.6c0.9,0,1.9-0.1,2.8-0.2c0.8,0.5,1.4,1.1,1.2,1.6c-0.7,1.9-2.4,0-3-1.2
			c0,1.7-1,3.4-1.8,2.4C256.1,501.6,256.9,500.3,257.4,499.6L257.4,499.6z M260.6,499.4c1.1,0.2,1.7,0,1.9-0.4
			C261.8,499.2,261.2,499.2,260.6,499.4z"/>
		<g>
			<path fill-rule="evenodd" clip-rule="evenodd" fill="#EDEDEE" d="M269.1,504.7c-2.9,0.2-3.1-1.9-1.4-2c0.9-0.1,1.4,0.7,1.9,1.3
				c-1.7-2.1-0.2-4.3,0.9-2.3c0.1,0.4,0.1,1.3,0,2c0.4-0.6,1.7-2,2.4-1.7c0.2,0.1,0.3,0.2,0.4,0.4c-0.1,0.4-0.3,0.7-0.4,1.1
				c-0.4,0.4-1.1,0.8-1.8,0.9c0.4,0.1,0.8,0.2,1.2,0.4c-0.3,0.6-0.6,1.1-0.9,1.7c-0.3-0.3-0.6-0.6-0.9-0.9c0.4,0.4,0.6,0.8,0.7,1.1
				c-0.4,0.6-0.7,1.1-1.1,1.6c-0.4-0.6-0.7-1.7-0.6-2.5c-0.4,0.6-1.1,1.4-1.8,1.7c-0.7,0.3-1.5-0.9-1.1-1.5
				C267.2,505.2,268.5,504.9,269.1,504.7z"/>
			<path fill-rule="evenodd" clip-rule="evenodd" fill="#ED2B96" d="M269.6,504.9c-0.1-0.4,0-0.7,0.4-0.8c0.3-0.1,0.6,0.1,0.8,0.4
				c0.1,0.4-0.1,0.7-0.4,0.9C270.1,505.5,269.7,505.3,269.6,504.9z"/>
		</g>
		<path fill-rule="evenodd" clip-rule="evenodd" fill="#EDEDEE" d="M222.4,488c1.2,0.6,2.8,0.8,2.6-0.9c-0.1-0.9-1.7-1-3-0.9
			c3.1-0.4,3.5-1.6,2.7-2.2c-0.6-0.4-2.3,0.1-3.2,1.1C221.8,486.1,222,487,222.4,488L222.4,488z M221.4,484.9
			c-0.3-0.9-0.6-1.9-0.9-2.9c0.4,0.1,0.6,0.2,0.8,0.6C221.5,483.3,221.5,484.1,221.4,484.9z"/>
		<g>
			<path fill-rule="evenodd" clip-rule="evenodd" fill="#EDEDEE" d="M244.4,499.4c-2-2.5-3.9-1.1-2.7,0.4c0.6,0.8,1.7,0.6,2.6,0.6
				c-3,0.2-3.7,3.1-1.2,2.5c0.4-0.1,1.2-0.9,1.7-1.5c-0.2,0.7-0.4,2.9,0.4,3.2c1.3,0.5,1.4-1.7,0.6-3.3c1.2,1,3.7,1.9,3.5-0.3
				c-0.1-0.9-1.7-1.1-3.1-0.9c1.8-0.2,2.7-0.7,3-1.2c-0.8-0.2-1.7-0.4-2.4-0.7c-0.4,0.3-0.9,0.6-1.2,1c0.1-0.4,0.2-0.9,0.2-1.3
				c-0.8-0.3-1.5-0.6-2.3-0.9C243.6,497.7,244.1,498.8,244.4,499.4z"/>
			<path fill-rule="evenodd" clip-rule="evenodd" fill="#ED2B96" d="M244.9,499.5c-0.4,0.2-0.6,0.6-0.4,0.9c0.1,0.4,0.6,0.5,0.9,0.4
				c0.4-0.2,0.6-0.6,0.4-0.9C245.7,499.5,245.3,499.4,244.9,499.5z"/>
		</g>
		<path fill-rule="evenodd" clip-rule="evenodd" fill="#FFFFFF" d="M224,462c-0.6-0.3-0.6-1.3-0.3-1.8
			C223.8,460.8,223.9,461.4,224,462z"/>
		<g>
			<path fill-rule="evenodd" clip-rule="evenodd" fill="#EDEDEE" d="M230.3,488c-3-1.3-2-3.5-0.3-2.7c0.1,0.1,0.2,0.1,0.3,0.1
				c0.2,0.4,0.4,0.7,0.6,1c0.1,0.4,0.1,0.8,0.2,1.2c0-0.3,0-0.6,0-0.9c0.5,0.8,1,1.4,1.6,2.2c-0.1,0-0.1,0-0.3-0.1
				c1.2,0.9,2.8,3.2,0.6,3.5c-0.9,0.1-1.4-1.4-1.7-2.7c0.4,3.1-0.6,3.8-1.4,3.1c-0.6-0.5-0.4-2.5,0.4-3.5c-0.7,0.4-1.8,0.8-2.7,0.6
				c-0.9-0.1-1-1.7-0.2-2C228.1,487.5,229.5,487.8,230.3,488z"/>
			<path fill-rule="evenodd" clip-rule="evenodd" fill="#ED2B96" d="M230.5,488.4c0.1-0.4,0.4-0.6,0.8-0.6c0.4,0.1,0.6,0.4,0.6,0.8
				c-0.1,0.4-0.4,0.7-0.8,0.6C230.7,489.2,230.5,488.9,230.5,488.4z"/>
		</g>
		<g>
			<path fill-rule="evenodd" clip-rule="evenodd" fill="#EDEDEE" d="M234.5,501c-3,2.3-1.3,4.5,0.4,3.1c0.9-0.7,0.8-1.9,0.7-3
				c0.3,3.5,3.6,4.2,3,1.4c-0.1-0.5-1-1.4-1.8-2c0.9,0.3,3.4,0.5,3.7-0.5c0.6-1.5-1.9-1.6-3.8-0.6c1.1-1.3,2.2-4.4-0.4-4.1
				c-1.1,0.1-1.2,1.9-1.1,3.6c-0.4-3.7-1.9-4.2-2.5-3.2c-0.5,0.8,0.3,3,1.4,3.9c-0.9-0.3-2.2-0.4-3.1,0c-1,0.4-0.7,2.2,0.3,2.4
				C232.2,502.2,233.6,501.5,234.5,501z"/>
			<path fill-rule="evenodd" clip-rule="evenodd" fill="#ED2B96" d="M234.6,500.5c0.2,0.4,0.6,0.6,1.1,0.4c0.4-0.1,0.6-0.6,0.4-1.1
				c-0.1-0.4-0.6-0.6-1.1-0.4C234.6,499.5,234.4,500,234.6,500.5z"/>
		</g>
		<path fill-rule="evenodd" clip-rule="evenodd" fill="#FFFFFF" d="M218.4,472.9c0.1,0.1,0.1,0.4,0.1,0.6
			C218.4,473.3,218.4,473.1,218.4,472.9L218.4,472.9z M218.9,475.3c0.4-0.1,0.9-0.2,1.2-0.1c0.9,0.1,1,1.4,0.3,1.8
			c-0.3,0.1-0.7,0.1-1.1,0.1C219.2,476.5,219,475.8,218.9,475.3z"/>
		<g>
			<path fill-rule="evenodd" clip-rule="evenodd" fill="#EDEDEE" d="M227.1,499.2c0.6,0.1,1.2-0.4,0.9-1.4c-0.2-0.9-1.1-1.2-1.9-1.5
				c2.6,0.9,4.3-1.2,2-1.7c-0.4-0.1-1.3,0.2-2,0.6c0.4-0.5,1.5-2.2,0.9-2.9c-0.9-0.9-1.8,0.9-1.8,2.6c-0.1-0.2-0.1-0.4-0.3-0.6
				C225.6,496.1,226.3,497.7,227.1,499.2z"/>
			<path fill-rule="evenodd" clip-rule="evenodd" fill="#FF008C" d="M225.8,496.5c0.1-0.1,0.1-0.2,0.1-0.4c0-0.3-0.3-0.6-0.6-0.6
				C225.4,495.9,225.6,496.2,225.8,496.5z"/>
		</g>
		<path fill-rule="evenodd" clip-rule="evenodd" fill="#FFFFFF" d="M222.6,452.9c-0.4,0.3-0.9,0.4-1.2,0.2c-0.9-0.4-0.2-1.4,0.9-1.9
			C222.4,451.7,222.6,452.3,222.6,452.9L222.6,452.9z M222.2,450.3c-1-0.6-1.8-1.5-0.6-2.3c0.1-0.1,0.1-0.1,0.2-0.1
			C222,448.6,222,449.5,222.2,450.3z"/>
		<g>
			<path fill-rule="evenodd" clip-rule="evenodd" fill="#EDEDEE" d="M241.8,511.5c3.5-1.4,2.4-4,0.4-3.1c-1.1,0.4-1.2,1.6-1.4,2.7
				c0.6-3.4-2.4-5.1-2.4-2.2c0,0.5,0.5,1.6,1.2,2.4c-0.8-0.5-3.1-1.4-3.7-0.5c-0.3,0.4-0.3,0.7-0.1,1c0.1,0.1,0.1,0.1,0.2,0.2
				c0.6,0.5,2.1,0.7,3.4,0.4c-0.4,0.3-0.9,0.8-1.4,1.3c0.7,0.6,1.4,1,2.1,1.4c0.2-0.5,0.4-1.2,0.5-1.8c-0.1,0.8-0.1,1.5-0.1,2
				c0.6,0.4,1.3,0.7,2,1c0.3-0.9,0-2.6-0.7-3.5c0.8,0.6,2,0.9,3,0.9c1.1-0.1,1.3-1.9,0.4-2.4C244.4,511,242.7,511.3,241.8,511.5z"/>
			<path fill-rule="evenodd" clip-rule="evenodd" fill="#ED2B96" d="M241.5,512c-0.1-0.4-0.4-0.8-0.9-0.7c-0.4,0.1-0.7,0.5-0.6,0.9
				c0,0.5,0.4,0.8,0.9,0.7C241.3,512.9,241.6,512.5,241.5,512z"/>
		</g>
		<path fill-rule="evenodd" clip-rule="evenodd" fill="#EDEDEE" d="M267,497.8c-0.7,1.7-2,1.7-2.4,0.7
			C265.4,498.3,266.2,498.1,267,497.8L267,497.8z M272.9,494.9c0,0.1-0.1,0.3-0.1,0.4c-0.3,0.5-1.2,0.9-2.2,0.9
			C271.4,495.9,272.2,495.4,272.9,494.9L272.9,494.9z M269.4,496.8c0.4,0.6,0.7,1.2,0.9,1.9c0.1,1-1.5,1.7-2.2,0.9
			c-0.4-0.4-0.5-1.2-0.6-1.9C268.1,497.4,268.8,497.1,269.4,496.8z"/>
		<g>
			<path fill-rule="evenodd" clip-rule="evenodd" fill="#FFFFFF" d="M219,460.1c-0.1,3.1,2.2,3.2,2.2,1.4c0-1-0.9-1.5-1.5-2
				c2.3,1.7,4.7,0,2.4-1.2c-0.4-0.1-1.4-0.1-2.2,0.1c0.6-0.4,2.2-1.9,1.7-2.7c-0.6-1.2-2.1,0.4-2.5,2.1c-0.2-1.4-1.7-3.7-2.8-1.9
				c-0.5,0.7,0.6,1.8,1.7,2.6c-0.7-0.5-1.4-0.8-1.9-0.9c0.1,0.6,0.1,1.3,0.2,1.9c0.5,0.1,1.2,0.2,1.7,0.1c-0.6,0.4-1.2,0.9-1.5,1.5
				c0.1,0.5,0.1,1,0.1,1.5c0.4,0.2,0.9,0.4,1.3,0.1C218.5,462.2,218.9,460.8,219,460.1z"/>
			<path fill-rule="evenodd" clip-rule="evenodd" fill="#FF008C" d="M218.7,459.6c0.4,0.1,0.8-0.1,0.9-0.4c0.1-0.4-0.1-0.8-0.5-0.9
				c-0.4-0.1-0.7,0.1-0.9,0.4C218.2,459.1,218.4,459.5,218.7,459.6z"/>
		</g>
		<path fill-rule="evenodd" clip-rule="evenodd" fill="#FFFFFF" d="M263.9,512.8c0.1-0.8,0.5-1.4,1.4-0.9c0.1,0.1,0.2,0.2,0.2,0.4
			C265,512.5,264.5,512.6,263.9,512.8z"/>
		<path fill-rule="evenodd" clip-rule="evenodd" fill="#EDEDEE" d="M230.4,505.2c0.3-0.1,0.6-0.1,1.1,0.1c0.4,0.3,0.4,0.9,0.1,1.6
			C231.2,506.3,230.8,505.7,230.4,505.2L230.4,505.2z M231.8,507.1c0.3,0.4,0.6,0.8,0.9,1.2c0.6-0.5,1.1-1.2,1-1.6
			C233.6,506,232.8,505.8,231.8,507.1z"/>
		<g>
			<path fill-rule="evenodd" clip-rule="evenodd" fill="#EDEDEE" d="M262.2,507.4c0.9,1.9-0.4,2.6-0.9,1.4c-0.3-0.6,0.1-1.1,0.4-1.6
				c-0.9,1.6-2.9,1.2-1.8,0c0.1-0.2,0.8-0.5,1.4-0.6c-0.5-0.1-1.8-0.6-1.8-1.2c0.1-0.9,1.4-0.4,2.1,0.6c-0.2-0.9,0-2.7,1.2-2
				c0.5,0.4,0.1,1.3-0.4,2.1c1.1-1.7,1.9-1.7,2-1c0.1,0.5-0.8,1.4-1.7,1.7c0.6,0,1.2,0.3,1.6,0.7c0.4,0.4-0.1,1.2-0.7,1.1
				C263,508.5,262.5,507.8,262.2,507.4z"/>
			<path fill-rule="evenodd" clip-rule="evenodd" fill="#ED2B96" d="M262.2,507c-0.2,0.2-0.5,0.2-0.6,0c-0.1-0.1-0.1-0.4,0.1-0.6
				c0.2-0.1,0.5-0.1,0.6,0C262.4,506.6,262.4,506.9,262.2,507z"/>
		</g>
		<g>
			<path fill-rule="evenodd" clip-rule="evenodd" fill="#EDEDEE" d="M227.7,480.2c-0.5,1.4-1.5,2.7-2.8,1.2
				c-0.6-0.8,0.5-2.2,1.7-3.4c-2.7,2.4-4.1,1.8-4,0.6c0.1-0.9,2.2-2,3.7-1.9c-0.9-0.4-1.9-1.2-2.4-2.1c-0.4-0.9,1-2.1,1.9-1.6
				c0,0,0,0.1,0.1,0.1c0.1,0.8,0.3,1.6,0.4,2.2C226.7,477.1,227.1,478.7,227.7,480.2z"/>
			<path fill-rule="evenodd" clip-rule="evenodd" fill="#ED2B96" d="M226.9,477.9c-0.1-0.1-0.1-0.1-0.2-0.3c-0.1-0.1-0.1-0.4,0-0.6
				C226.7,477.3,226.8,477.6,226.9,477.9z"/>
		</g>
		<g>
			<path fill-rule="evenodd" clip-rule="evenodd" fill="#EDEDEE" d="M252.1,507.2c-0.6-3.7,2.1-4.2,2.4-2c0.2,1.2-0.7,1.9-1.4,2.7
				c2.5-2.3,5.5-0.7,3.1,0.9c-0.4,0.3-1.7,0.4-2.7,0.3c0.8,0.4,2.8,1.9,2.4,2.9c-0.6,1.5-2.5-0.1-3.3-2.1c-0.1,1.7-1.4,4.7-3,2.7
				c-0.7-0.8,0.4-2.2,1.6-3.4c-2.7,2.4-4.1,1.9-4,0.6c0.1-0.9,2.2-2,3.7-1.9c-0.9-0.4-1.9-1.2-2.3-2.1c-0.5-0.9,0.9-2.1,1.8-1.5
				C251.1,504.9,251.8,506.4,252.1,507.2z"/>
			<path fill-rule="evenodd" clip-rule="evenodd" fill="#ED2B96" d="M251.8,507.8c0.4-0.2,0.9-0.1,1.1,0.4c0.2,0.4,0,0.9-0.4,1.1
				c-0.4,0.1-0.9,0-1.1-0.4C251.1,508.5,251.4,508,251.8,507.8z"/>
		</g>
		<path fill-rule="evenodd" clip-rule="evenodd" fill="#FFFFFF" d="M217.1,465.6c0.1-0.2,0-0.4-0.1-0.6
			C217,465.2,217.1,465.4,217.1,465.6z"/>
	</g>
	<path fill-rule="evenodd" clip-rule="evenodd" fill="#FAD9A5" d="M221.2,456.1c-0.4,2.4,4.1,12.7,12.9,9.9c1-0.4,1.7-0.9,2-1.6
		c-1.9-2.7-3.7-5.6-5.3-8.9c-0.4-0.6-0.6-1.7-0.6-2.7L221.2,456.1z"/>
	<g>
		<path fill-rule="evenodd" clip-rule="evenodd" fill="#FFE1B0" d="M140.8,451.3c33.5,19.7,78,14.4,113.7,1.2
			c36.4-13.5,62.2-46.7,49.2-77.8c-16.2-32.5-48.7-66.7-85.1-62.4c-59.1,1.4-107.2,33.6-105.1,86.7
			C114.3,418.4,123.3,440.9,140.8,451.3z"/>
		<path fill-rule="evenodd" clip-rule="evenodd" fill="#F5D198" d="M265.8,375.6c10.7,7.9,23.2,12.2,32.1,13.8
			c2-1.5,4.5-2.2,6.9-2.4c2.4-0.1,4,0.7,5.5,1.2c-1.2-64.6-66.2-90.1-125.4-74.7c-31.6,8.4-61,31.5-70,61.6c-5.5,18.1-3.2,39,5,56.9
			c0.8-0.6,1.7-1.1,2.7-1.4c4.5-1.6,10.4-0.4,13.8,2.5c0.4-1.2,1-2.3,1.6-3.4c12.2-21.8,47.5-33.6,72.1-39.4
			c-4.9,3.3-18.7,7.6-29.5,12.3c29.8-2.7,58.6-14.3,68.8-37.4c8.2,14,23.8,21.2,39.7,26.1C281.2,387,272.2,381.5,265.8,375.6z"/>
		<path fill-rule="evenodd" clip-rule="evenodd" fill="#FFE1B0" d="M122.8,430.6c-6,2.1-7.8,8.5-5.9,13.5c1.9,5.1,8.5,7.4,14.5,5.2
			c6.2-2.1,9.5-7.8,7.6-13C137.1,431.3,128.9,428.5,122.8,430.6z"/>
		<path fill-rule="evenodd" clip-rule="evenodd" fill="#FFBC9C" d="M145.1,453.7c3.8-10.9,15-17.9,26.9-16.1
			c13,1.9,22.2,14,20.8,26.6C176,464.3,159.6,461.2,145.1,453.7z"/>
		<path fill-rule="evenodd" clip-rule="evenodd" fill="#FFBC9C" d="M251.9,453.4c0.8-0.3,1.7-0.6,2.6-0.9
			c15.3-5.7,28.7-14.8,38.3-25.8c-7.5-9.1-20.7-11.7-31.2-5.8C250.1,427.4,245.9,442,251.9,453.4z"/>
		<path fill-rule="evenodd" clip-rule="evenodd" fill="#EFC88A" d="M258,381.5c3.1,0.2,6.6,0.7,9.2,2c3.2,1.5,5.5,4.9,7.1,7.2
			c-0.3,0.2-0.6,0.8-0.9,1c-3.7-6-8.9-8.4-16-7.3C257.8,383.3,257.8,382.6,258,381.5z"/>
		<g>
			<path fill-rule="evenodd" clip-rule="evenodd" fill="#1A2C38" d="M257.8,400c3.7-0.5,7.3,3.7,8.3,9.3c0.8,5.5-1.5,10.4-5.1,10.9
				c-3.7,0.6-7.3-3.5-8.2-9.1C251.9,405.6,254.2,400.7,257.8,400z"/>
			<g>
				<path fill-rule="evenodd" clip-rule="evenodd" fill="#1A2C38" d="M264.4,405.6c-0.2-1.2,2.1-2.7,3.5-2.2
					c-1.4-1.2-2.7-1.6-4.3-0.8c-0.6-1.5,0.5-3.3,1.6-4.5c-1.3-0.1-4.2,1.2-4.5,2.8C252.6,405.4,268.9,417,264.4,405.6z"/>
				<path fill-rule="evenodd" clip-rule="evenodd" fill="#3A596E" d="M259.1,404.1c1.9-0.2,3.9,1.9,4.4,4.7c0.6,2.7-0.4,5.2-2.1,5.5
					c-1.8,0.4-3.7-1.7-4.3-4.5C256.4,406.8,257.4,404.4,259.1,404.1z"/>
				<path fill-rule="evenodd" clip-rule="evenodd" fill="#FFFFFF" d="M256.7,401.3c1.2-0.2,2.4,1.2,2.8,2.8c0.3,1.9-0.5,3.5-1.6,3.7
					c-1.3,0.2-2.4-1.2-2.8-2.8C255,403.1,255.6,401.5,256.7,401.3z"/>
			</g>
		</g>
		<g>
			<path fill-rule="evenodd" clip-rule="evenodd" fill="#1A2C38" d="M168.2,416.9c-3.5,0.9-5.5,5.8-4.3,11.4c1.2,5.4,5,9.4,8.6,8.5
				c3.5-0.8,5.5-6,4.3-11.5C175.7,419.9,171.7,416.1,168.2,416.9z"/>
			<g>
				<path fill-rule="evenodd" clip-rule="evenodd" fill="#1A2C38" d="M163.9,424.4c-0.2-1.2-2.9-1.9-3.8-0.7
					c0.6-1.7,1.8-2.6,3.7-2.4c-0.1-1.4-1.7-3-3.2-3.6c1.2-0.6,4.7,0,5.4,1.3C178.7,422,163.8,435.2,163.9,424.4z"/>
				<path fill-rule="evenodd" clip-rule="evenodd" fill="#3A596E" d="M168.3,421.2c-1.7,0.4-2.8,3-2.4,5.8c0.5,2.8,2.3,4.9,4,4.4
					c1.7-0.3,2.8-2.9,2.4-5.8C171.9,422.9,170.2,420.7,168.3,421.2z"/>
				<path fill-rule="evenodd" clip-rule="evenodd" fill="#FFFFFF" d="M169.6,417.6c-1.2,0.4-1.7,1.9-1.4,3.8c0.3,1.7,1.4,3,2.7,2.7
					c1.2-0.2,1.9-1.9,1.4-3.6C172.1,418.6,170.9,417.4,169.6,417.6z"/>
			</g>
		</g>
		<path fill-rule="evenodd" clip-rule="evenodd" fill="#FFE1B0" d="M304.8,386.6c6.6-0.5,10.7,4.5,11,9.9
			c0.4,5.4-4.6,10.2-11.1,10.7c-6.4,0.7-12-3.2-12.1-8.5C292.3,393.3,298.4,387.2,304.8,386.6z"/>
		<path fill-rule="evenodd" clip-rule="evenodd" fill="#EFC88A" d="M311.5,396.5c0,1.8-1.7,5.6-6.3,6.6c3-0.5,7.8-6.3,2.8-9.1
			c-1.4-0.9-4.4-0.1-3.3-2.3C306.2,388.8,311.2,392.1,311.5,396.5z"/>
		<g>
			<path fill-rule="evenodd" clip-rule="evenodd" fill="#961200" d="M207.3,438.8c5.9,14.9,26.9,12.5,28.3-3.4L207.3,438.8z"/>
			<path fill-rule="evenodd" clip-rule="evenodd" fill="#CC1800" d="M216.6,448c1.8-2.7,4.3-4.6,7.3-5.1c2.7-0.5,5.4,0.1,7.8,1.6
				C228,448.5,221.9,449.8,216.6,448z"/>
		</g>
		<path fill-rule="evenodd" clip-rule="evenodd" fill="#EFC88A" d="M121,442.2c0.6,1.7,3.9,4.6,8.5,3.4c-3.1,0.7-9.7-2.4-6.5-7.1
			c1.1-1.3,3.8-2,2.1-3.5C122.6,433,119.2,438,121,442.2z"/>
		<path fill-rule="evenodd" clip-rule="evenodd" fill="#DE3C6C" d="M251.1,358.7c11.7,18.9,35.6,27.7,48.9,29.4
			c1.5-0.8,3.2-1.4,4.8-1.5c2.3-0.1,4.3,0.4,6,1.3c-0.3-65.7-66.5-91.7-126.1-76.1c-31.5,8.4-64.7,31.4-70.3,62.4
			c-2.8,15.3-4.4,48-19.2,64.4c6.7-3.1,17.6-10,21.6-13.9c1.4,5.3,0.4,3,2.7,7.8c0.7-0.5,2.4-1.6,3.3-1.9c4.2-1.4,9.6-0.5,13,1.9
			c0.5-1.5,1.2-3,2-4.5c12.5-21.8,47.5-33.9,72.1-39.4c-8.9,6.2-21.7,10.3-31,13.8C213.4,398,242.5,385.6,251.1,358.7L251.1,358.7z
			 M131.9,449.1c2.3,2.7,4.9,5.3,7.6,7.6c-2.1-3.3-3.5-6.5-4.2-9.4C134.3,447.9,133.1,448.6,131.9,449.1z"/>
		<path fill-rule="evenodd" clip-rule="evenodd" fill="#DE3C6C" d="M259.1,362.6c2.1,10,18.6,21.2,33,28.5
			c-19.4-6-38.3-15-44.5-35.4L259.1,362.6z"/>
		<path fill-rule="evenodd" clip-rule="evenodd" fill="#E84473" d="M236.3,318.4c-7.7,14.8-32.4,23.1-55.4,29.4
			c-25.3,6.9-52.1,20.4-67.7,48.2c-0.3-9.2,18.3-36.9,44.2-50c24.3-12.4,41.9-12.1,61.7-37.4L236.3,318.4z"/>
		<path fill-rule="evenodd" clip-rule="evenodd" fill="#E84473" d="M102.7,415.7c23.6-4.4,34.3-18.6,37.9-21.1
			c10-6.6,26.4-17.3,39.2-19.7c23-4.2,54.9-16.1,63.9-42.2c24.1,0.7,22.8,43,65.7,47.8c-36.6-14.5-36.2-63.3-77.8-64.4
			c-15.4,35.6-53.7,36.1-84.4,56.7C131.5,383.5,122,404.1,102.7,415.7z"/>
		<path fill-rule="evenodd" clip-rule="evenodd" fill="#E84473" d="M220.8,380c0.1,0.5,5.1-2.8,6.4-3.7c4.5-3.2,8.7-6.6,12.5-11
			c5.8-6.5,13.4-20.4,12.5-30c-2.2-1.9-7.2-1.3-9.4-3.2C240.6,347.3,233.4,363.9,220.8,380z"/>
		<path fill-rule="evenodd" clip-rule="evenodd" fill="#E84473" d="M269.4,319.1c-12.6-5.5-31-8.6-39.3-1.3l-11.1-8.9
			c1.5-0.9,3.7-1.4,4.5-1.3C239.9,308.2,255.7,312,269.4,319.1z"/>
		<path fill-rule="evenodd" clip-rule="evenodd" fill="#E84473" d="M203,308.4c-7.7,15-41.3,25.3-54.4,32.8
			c-3.5,2-7.8,4.5-15.4,10.3c13.8-17.7,33.2-32.7,52.2-39.9C191.2,310.2,197.1,309.1,203,308.4z"/>
		<path fill-rule="evenodd" clip-rule="evenodd" fill="#E84473" d="M280.6,376.6c0,0.4-4.2-2.4-5.4-3.2c-3.7-2.8-7.4-5.7-10.9-9.5
			c-5.2-5.7-12.7-17.9-13.2-26.4c1.6-1.7,5.4-1.2,6.9-3C261.6,348,268.9,362.5,280.6,376.6z"/>
		<path fill-rule="evenodd" clip-rule="evenodd" fill="#E84473" d="M301.6,366.6c-0.7-3.8-28.4-59.6-74.5-50.7
			c1,2.2,30.2,15.1,27.6,16.4C270.9,337.6,282,340.1,301.6,366.6z"/>
		<path fill-rule="evenodd" clip-rule="evenodd" fill="#E84473" d="M180.5,388.3c9.6-0.7,25.6-5.8,33.5-10.7
			c8.4-5.3,28.2-21.4,33.5-32.5c-0.6-3.4-14.8,1.7-15.3-1.6C221,359.2,199.3,381.5,180.5,388.3z"/>
		<path fill-rule="evenodd" clip-rule="evenodd" fill="#E84473" d="M152.9,402.8c2.7-6.3,9.8-15.9,15-20.1c5.5-4.5,21-14,29.7-15
			c2.1,1.2,3.2,2.5,5.3,3.7C189.7,375.3,161.9,391.7,152.9,402.8z"/>
		<path fill-rule="evenodd" clip-rule="evenodd" fill="#E84473" d="M169.5,336c16.3-2.4,46.2-19.4,54-26.3c0.7-0.6,1.6-1.4,2.4-2
			c-7.7-0.5-15.6-0.2-23.5,0.8C195,318.8,185,328.5,169.5,336z"/>
		<path fill-rule="evenodd" clip-rule="evenodd" fill="#D83B6A" d="M153.5,398.4c-8.6,4.8-20.6,14.9-25.3,21.3
			c-1.9,2.6-4.4,6.8-6.8,11.5c0.5-0.3,1-0.5,1.4-0.6c2.7-0.9,5.8-0.9,8.7-0.1C137.7,418,145.9,405.2,153.5,398.4z"/>
		<path fill-rule="evenodd" clip-rule="evenodd" fill="#E84473" d="M136.3,354.6c-5.7,2.5-14.8,8.4-20.4,13.2
			c-1.7,3.8-4.8,12.3-5.5,16.4C117.6,373.2,128.7,360.2,136.3,354.6z"/>
		<path fill-rule="evenodd" clip-rule="evenodd" fill="#E84473" d="M266.3,318.7c1.7,0.4,3.5,1,5.3,1.6c13.2,7.4,24.1,18,31,31.7
			C292.6,339.1,277.6,324.5,266.3,318.7z"/>
	</g>
	<polygon fill="#DED7B2" points="245.7,518.9 252.1,491.1 0,0 3.9,0 255.4,489.9 285.7,498.2 284.8,501.6 255.1,493.5 249,519.7 	
		"/>
	<g>
		<polygon fill-rule="evenodd" clip-rule="evenodd" fill="#8C702D" points="290.5,495.6 240.3,519.4 244.4,529.3 294.8,504.7 		"/>
		<path fill-rule="evenodd" clip-rule="evenodd" fill="#D4B56C" d="M245.8,516.8c0.8-0.2,1.6-0.4,2.3-0.6
			c4.6-1.1,19.9-7.9,25.4-10.8c4.4-2.2,8.6-4.8,12-7.5l0.8-0.4c-3.5,2.8-7.9,5.6-12.7,8.1c-5.6,2.9-21,9.7-25.6,10.8
			c-1.1,0.3-2.2,0.6-3.5,0.9L245.8,516.8L245.8,516.8z M282.7,499.2l-0.9,0.4c-2.2,1.7-4.5,3-7.1,4.2c-4.1,2-16.6,7.6-22.1,9.6
			l-1.7,0.8c0.1-0.1,0.4-0.1,0.5-0.1c4.8-1.6,19-7.9,23.4-10.2C277.6,502.7,280.4,501.1,282.7,499.2L282.7,499.2z M240.8,520.4
			l0.1,0.2c0.5-0.2,0.9-0.4,1.4-0.5c7.9-2.6,19.9-7.9,31.1-13.4c6.6-3.2,11.7-6.9,17-10.7c0.1-0.1,0.2-0.1,0.3-0.2l-0.1-0.1
			c-0.1,0.1-0.2,0.1-0.4,0.2c-5.3,3.7-10.4,7.4-16.9,10.6c-11.2,5.4-23.2,10.9-31,13.4C241.8,520.1,241.3,520.3,240.8,520.4
			L240.8,520.4z M241.4,522.1l0.1,0.1c1-0.4,2-0.9,3.2-1.5c1.7-0.8,3.6-1.5,5.5-2.2c2.2-0.9,4.5-1.7,6.8-2.8
			c0.4-0.1,1.1-0.5,1.9-0.9c1.4-0.7,12.9-6.3,14.7-7.2c2.9-1.4,5.5-2.6,5.6-2.3c0.3,0.6-18,9.6-23.9,12.5c-1.3,0.6-2.5,1.2-3.5,1.7
			c-0.6,0.3-1,0.5-1.3,0.6c-2.5,1.2-5.3,2.9-8.1,4.5l0.1,0.2c2.8-1.7,5.7-3.4,8.1-4.5c0.3-0.1,0.8-0.4,1.3-0.6
			c0.9-0.4,2.2-1,3.5-1.7c6-3,24.5-12,24.2-12.9c-0.2-0.4-3,0.9-6.1,2.3c-1.8,0.9-13.2,6.5-14.7,7.2c-0.9,0.4-1.6,0.8-1.9,1
			c-2.2,1.1-4.5,1.9-6.7,2.7c-2,0.7-3.9,1.4-5.6,2.3C243.5,521.1,242.5,521.6,241.4,522.1L241.4,522.1z M241.8,522.9
			c1.5-0.6,3.5-1.5,4.8-2.1c0.6-0.2,1-0.4,1.3-0.5c0.6-0.1,0.7-0.1,0.5,0.1c-0.1,0.1-0.2,0.2-0.5,0.4c-1.4,0.9-3.5,2.1-5.7,3.2
			l-0.1-0.2c2.2-1.2,4.2-2.3,5.6-3.2c0.2-0.1,0.4-0.2,0.4-0.2c0.1-0.1-0.1,0.1-0.2,0.1c-0.3,0.1-0.7,0.2-1.3,0.4
			c-1.3,0.6-3.2,1.4-4.8,2.1L241.8,522.9L241.8,522.9z M241.9,523.3c0.2-0.1,0.3-0.1,0.4-0.1c0,0.1-0.1,0.1-0.3,0.3L241.9,523.3
			L241.9,523.3z M242.9,525.8l0.1,0.1c2.9-1.5,5.8-3.1,8.9-4.7c11.7-6,31.8-16,41.1-20.5l-0.1-0.1c-9.4,4.5-29.4,14.4-41.2,20.5
			C248.8,522.6,245.8,524.2,242.9,525.8L242.9,525.8z M243.4,526.8l0.1,0.2c5.8-3.3,29.2-15,50.1-25.1l-0.1-0.2
			C272.6,511.8,249.3,523.5,243.4,526.8L243.4,526.8z M244.2,528.9l0.1,0.1c8.4-5,24.9-13.8,33.8-18.2c5.1-2.7,10.5-5.3,16-7.8
			l-0.1-0.1c-5.5,2.5-10.9,5.1-16,7.8C269.1,515.2,252.6,523.9,244.2,528.9L244.2,528.9z M263.4,520l3.7-1.7
			c7.9-4.4,16.4-8.9,22.6-11.8c1.5-0.8,3.2-1.6,4.9-2.4l-0.1-0.2c-1.7,0.9-3.4,1.7-4.9,2.4C282.5,509.7,272.3,515.1,263.4,520
			L263.4,520z M292.5,499.8l-0.1-0.1c-6.1,2.8-11.2,4.9-12,4.8c-0.1-0.1-0.1-0.2,0.3-0.5c1.4-1.4,6-4.2,10-6.7
			c0.1-0.1,0.3-0.1,0.4-0.3l-0.1-0.1c-0.1,0.1-0.4,0.2-0.5,0.3c-4,2.4-8.6,5.3-10.2,6.8c-0.5,0.4-0.6,0.7-0.3,0.8
			C281,504.9,286.3,502.7,292.5,499.8L292.5,499.8z M292.2,499.2c-2.3,1-3.8,1.7-4.2,1.7c-0.1,0-0.2,0-0.2,0c-0.1-0.1,0-0.4,0.4-0.8
			c0.4-0.4,0.9-0.9,1.7-1.4c0.4-0.4,0.9-0.7,1.5-1.2l0.1,0.1c-0.5,0.4-0.9,0.7-1.4,1.1c-0.7,0.6-1.2,1-1.6,1.4
			c-0.3,0.2-0.5,0.4-0.4,0.4c0,0,0,0,0.1,0c0.3,0,1.7-0.6,3.9-1.7L292.2,499.2z"/>
	</g>
	<path fill-rule="evenodd" clip-rule="evenodd" fill="#FFE1B0" d="M153.6,486.7c-5.5,1.4-9.7,2.3-12.3,1.4c-1.9-0.7-3.2-0.9-5.6-2.6
		c-1.1-0.7-2.2-2.6-3.5-3.5c-2.4-1.9-4.4,1.9-1.8,3.4c1.4,0.9,6.8,3.7,1.5,3.2c-3.6-0.4-5.2-0.7-8.9-0.3c-2,0.3-2.2,2.5,0.7,2.9
		c2.2,0.4,5.4,0.1,5.9,0c5.1-0.1-0.8,1.7-2.2,2.3c-2.3,0.9-5.7,1.9-6.3,3.1c-0.4,0.6,0.5,1.5,1.8,1.3c1.5-0.1,13.9-5.4,8-1.5
		c-3.8,2.5-2.6,1.6-6,3.9c-1.9,1.4-0.5,3.5,1.8,1.8c3.5-2.6,2.2-1.6,5.5-3.7c1.7-1.1,2.7-0.8,1.3,0.8c-0.9,1.1-5.8,4.5-4.1,5.6
		c1.4,1.1,5.2-3.7,6.6-4.8c0.9-0.6,2.2-1.2,3.4-1.8c1-0.6,3-1.9,4.4-2.4c3.3-1.4,6.6-2.2,10.3-3.2c10.4-2.5,20.2-5.3,30.6-8.7
		c10-3.4,19.7-6.9,27.3-9.6c4.2-1.6,7.1,4.5,9.2,3.5c4.8-2.2,2.8-17.2-3.2-15.9c-2.9,0.6-6.9,2.7-11.7,5
		c-7.3,3.5-15.8,7.3-24.3,10.7C172.8,481,163.1,484.1,153.6,486.7z"/>
	<g>
		<path fill-rule="evenodd" clip-rule="evenodd" fill="#338BD5" d="M277.8,481.8c1-0.2,1.9,0.4,2.1,1.4c0.1,0.9-0.5,1.9-1.5,2.1
			c0.5,0.2,0.9,0.7,1,1.3c0.2,1-0.5,1.9-1.4,2.1c0.5,0.3,0.9,0.7,0.9,1.3c0.2,1-0.5,1.9-1.4,2.2c-0.1,0-0.1,0-0.1,0
			c0.4,0.2,0.7,0.6,0.9,1.2c0.1,1-0.5,1.9-1.5,2.1c-0.1,0-0.2,0-0.4,0c0.4,0.3,0.6,0.7,0.7,1.2c0.1,1-0.5,1.9-1.5,2.2
			c-0.1,0-0.2,0-0.3,0c0.4,0.3,0.6,0.6,0.7,1.2c0.1,0.9-0.5,1.9-1.5,2.1c-0.1,0-0.2,0-0.4,0c0.4,0.3,0.6,0.7,0.7,1.2
			c0.1,1-0.5,1.9-1.5,2.1c-0.9,0.2-1.9-0.4-2.1-1.4c-0.1-0.9,0.5-1.9,1.5-2.1c0.1,0,0.2,0,0.4,0c-0.4-0.3-0.6-0.7-0.7-1.2
			c-0.2-1,0.5-1.9,1.5-2.1c0.1-0.1,0.2-0.1,0.3-0.1c-0.4-0.2-0.6-0.6-0.7-1.2c-0.1-0.9,0.5-1.9,1.5-2.1c0.1,0,0.2,0,0.4,0
			c-0.4-0.3-0.6-0.6-0.7-1.2c-0.2-1,0.5-1.9,1.5-2.1c0,0,0,0,0.1,0c-0.5-0.3-0.8-0.7-0.9-1.3c-0.1-0.9,0.6-1.9,1.5-2.1
			c-0.5-0.2-0.9-0.7-1-1.3c-0.1-0.9,0.5-1.9,1.5-2.1c-0.5-0.2-0.9-0.7-1-1.3C276.2,482.8,276.8,481.9,277.8,481.8z"/>
		<path fill-rule="evenodd" clip-rule="evenodd" fill="#338BD5" d="M279,490c0.1,0.9-0.6,1.9-1.5,2.1c-0.1,0-0.1,0-0.1,0
			c0.4,0.2,0.7,0.6,0.9,1.2c0.1,1-0.5,1.9-1.5,2.1c-0.1,0-0.2,0-0.4,0c0.4,0.3,0.6,0.7,0.7,1.2c0.1,1-0.5,1.9-1.5,2.2
			c-0.1,0-0.2,0-0.3,0c0.4,0.3,0.6,0.6,0.7,1.2c0.1,0.9-0.5,1.9-1.5,2.1c-0.1,0-0.2,0-0.4,0c0.4,0.3,0.6,0.7,0.7,1.2
			c0.1,1-0.5,1.9-1.5,2.1c-0.9,0.2-1.9-0.4-2.1-1.4c-0.1-0.9,0.5-1.9,1.5-2.1c0.1,0,0.2,0,0.4,0c-0.4-0.3-0.6-0.7-0.7-1.2
			c-0.2-1,0.5-1.9,1.5-2.1c0.1-0.1,0.2-0.1,0.3-0.1c-0.4-0.2-0.6-0.6-0.7-1.2c-0.1-0.9,0.5-1.9,1.5-2.1c0.1,0,0.2,0,0.4,0
			c-0.4-0.3-0.6-0.6-0.7-1.2c-0.1-0.1-0.1-0.1-0.1-0.2c0.6-0.4,1.2-0.9,1.8-1.4C277.1,492,278.1,491,279,490z"/>
	</g>
</g>
</svg>
